HIERARCHY
ROOT Hips
{
  OFFSET 0.000000 0.000000 0.000000
  CHANNELS 6 Xposition Yposition Zposition Zrotation Yrotation Xrotation
  JOINT Spine
  {
    OFFSET -0.103929 2.016908 0.069201
    CHANNELS 3 Zrotation Yrotation Xrotation
    JOINT Spine1
    {
      OFFSET 0.040925 2.013020 -0.052834
      CHANNELS 3 Zrotation Yrotation Xrotation
      JOINT Spine2
      {
        OFFSET 0.091899 2.026089 -0.082763
        CHANNELS 3 Zrotation Yrotation Xrotation
        JOINT Neck
        {
          OFFSET -0.028700 1.589775 -0.031135
          CHANNELS 3 Zrotation Yrotation Xrotation
          JOINT Head
          {
            OFFSET 0.040559 1.599987 -0.095354
            CHANNELS 3 Zrotation Yrotation Xrotation
            End Site
            {
              OFFSET 0 0 0
            }
          }
        }
        JOINT LeftShoulder
        {
          OFFSET 3.306406 1.157636 0.011041
          CHANNELS 3 Zrotation Yrotation Xrotation
          JOINT LeftArm
          {
            OFFSET 4.632080 -0.000000 0.000000
            CHANNELS 3 Zrotation Yrotation Xrotation
            JOINT LeftForeArm
            {
              OFFSET 3.419240 -0.000000 -0.000000
              CHANNELS 3 Zrotation Yrotation Xrotation
              JOINT LeftHand
              {
                OFFSET 0.625370 -0.000000 -0.000000
                CHANNELS 3 Zrotation Yrotation Xrotation
                JOINT LeftHandIndex1
                {
                  OFFSET 0.504190 -0.000000 -0.000000
                  CHANNELS 3 Zrotation Yrotation Xrotation
                  End Site
                  {
                    OFFSET 0 0 0
                  }
                }
              }
            }
          }
        }
        JOINT RightShoulder
        {
          OFFSET -3.780807 1.021795 -0.166087
          CHANNELS 3 Zrotation Yrotation Xrotation
          JOINT RightArm
          {
            OFFSET -4.406400 -0.000000 -0.000000
            CHANNELS 3 Zrotation Yrotation Xrotation
            JOINT RightForeArm
            {
              OFFSET -3.446750 -0.000000 0.000000
              CHANNELS 3 Zrotation Yrotation Xrotation
              JOINT RightHand
              {
                OFFSET -0.513674 -0.000000 -0.000000
                CHANNELS 3 Zrotation Yrotation Xrotation
                JOINT RightHandIndex1
                {
                  OFFSET -0.414137 -0.000000 -0.000000
                  CHANNELS 3 Zrotation Yrotation Xrotation
                  End Site
                  {
                    OFFSET 0 0 0
                  }
                }
              }
            }
          }
        }
      }
    }
  }
  JOINT LeftUpLeg
  {
    OFFSET 2.201029 -6.047282 0.000000
    CHANNELS 3 Zrotation Yrotation Xrotation
    JOINT LeftLeg
    {
      OFFSET 2.541540 -6.982830 0.000000
      CHANNELS 3 Zrotation Yrotation Xrotation
      JOINT LeftFoot
      {
        OFFSET 0.059715 -0.164065 1.775819
        CHANNELS 3 Zrotation Yrotation Xrotation
        JOINT LeftToeBase
        {
          OFFSET 0.000000 -0.000000 0.908320
          CHANNELS 3 Zrotation Yrotation Xrotation
          End Site
          {
            OFFSET 0 0 0
          }
        }
      }
    }
  }
  JOINT RightUpLeg
  {
    OFFSET -2.269262 -6.234750 0.000000
    CHANNELS 3 Zrotation Yrotation Xrotation
    JOINT RightLeg
    {
      OFFSET -2.348077 -6.451293 0.000000
      CHANNELS 3 Zrotation Yrotation Xrotation
      JOINT RightFoot
      {
        OFFSET -0.186335 -0.511953 1.685391
        CHANNELS 3 Zrotation Yrotation Xrotation
        JOINT RightToeBase
        {
          OFFSET -0.000000 -0.000000 0.889273
          CHANNELS 3 Zrotation Yrotation Xrotation
          End Site
          {
            OFFSET 0 0 0
          }
        }
      }
    }
  }
}
MOTION
Frames: 10
Frame Time: 0.00833333
8.366650 16.631000 23.865400 -179.544000 2.207480 -169.668000 -17.627700 -8.553460 -11.278200 0.000000 0.000000 13.683400 4.130530 0.000000 -16.077100 0.000000 0.000000 -55.323200 21.686500 -0.047520 -9.275270 0.000000 0.000000 8.595560 -3.894670 0.000000 -13.748300 0.000000 0.000000 2.017590 -5.414620 2.106790 -8.415590 1.157810 3.315640 -0.043002 4.643460 1.532400 4.301460 -4.006420 0.868625 -8.599450 2.823820 -1.317550 10.063200 0.000000 -0.000000 0.000000 90.896900 5.909280 -27.799900 0.000000 0.000000 18.290900 -18.722200 0.000000 -28.649400 0.000000 0.000000 7.125020 0.000000 -0.000000 0.000000 -71.043000 -29.884400 -42.611600 0.000000 0.000000 28.462100 -43.957400 0.000000 -16.456400 0.000000 0.000000 7.125020
8.367970 16.630500 23.865800 -179.692000 2.168600 -169.727000 -17.818400 -8.646920 -11.136500 0.000000 0.000000 13.531500 4.248070 0.000000 -15.998100 0.000000 0.000000 -55.672000 21.519800 -0.049527 -9.191460 0.000000 0.000000 8.537710 -4.288010 0.000000 -13.753100 0.000000 0.000000 -3.693710 -5.523370 2.093340 -8.434820 1.072630 3.313020 -0.046943 4.615980 1.529350 4.307590 -4.023660 0.937460 -8.627860 2.932080 -1.284250 10.075100 -0.000000 -0.000000 0.000000 91.032900 5.436910 -27.643700 0.000000 0.000000 18.228300 -18.642900 0.000000 -28.767600 0.000000 0.000000 7.125020 -0.000000 -0.000000 0.000000 -70.948900 -30.405000 -42.663500 0.000000 0.000000 28.114600 -42.449300 0.000000 -17.988700 0.000000 0.000000 7.125020
8.369250 16.629600 23.868100 -179.673000 2.159900 -169.749000 -17.783700 -8.667880 -11.031200 0.000000 0.000000 13.363400 4.258210 0.000000 -15.968100 0.000000 0.000000 -55.722600 21.566100 0.087624 -9.182500 0.000000 0.000000 8.552450 -4.592170 0.000000 -13.784500 0.000000 0.000000 -8.885890 -5.473660 2.145980 -8.495880 1.014940 3.384850 -0.064127 4.537960 1.566740 4.321700 -3.936060 0.902023 -8.608100 2.953460 -1.325540 10.093500 -0.000000 0.000000 0.000000 91.221400 4.660130 -27.628500 0.000000 0.000000 18.431300 -18.269700 0.000000 -28.914600 0.000000 0.000000 7.125020 -0.000000 0.000000 0.000000 -70.824200 -30.900100 -42.838900 0.000000 0.000000 28.016600 -42.580900 0.000000 -18.368000 0.000000 0.000000 7.125020
8.369980 16.629400 23.870200 -179.682000 2.197430 -169.772000 -17.784800 -8.666330 -10.904400 0.000000 0.000000 13.161100 4.283270 0.000000 -15.909400 0.000000 0.000000 -55.787400 21.567700 0.186971 -9.195560 0.000000 0.000000 8.607030 -4.718990 0.000000 -13.783700 0.000000 0.000000 -16.136100 -5.500270 2.151530 -8.551890 1.022060 3.398170 -0.059633 4.565150 1.571520 4.354410 -3.936010 0.925943 -8.670960 2.982540 -1.308760 10.112100 -0.000000 -0.000000 0.000000 91.325500 4.319310 -27.564900 0.000000 0.000000 18.510300 -18.152000 0.000000 -28.999900 0.000000 0.000000 7.125020 -0.000000 -0.000000 0.000000 -70.755000 -31.097400 -42.925400 0.000000 0.000000 28.006200 -40.145400 0.000000 -19.310700 0.000000 0.000000 7.125020
8.372130 16.629600 23.874400 -179.765000 2.237550 -169.840000 -17.873200 -8.668430 -10.763900 0.000000 0.000000 12.999400 4.304590 0.000000 -15.843800 0.000000 0.000000 -55.727000 21.466900 0.354244 -9.163900 0.000000 0.000000 8.637260 -4.510690 0.000000 -13.754200 0.000000 0.000000 -23.367000 -5.630030 2.126640 -8.479210 1.030840 3.372840 -0.079075 4.639900 1.559110 4.288450 -4.001480 1.007710 -8.682030 3.046610 -1.248200 10.090100 -0.000000 0.000000 0.000000 91.246700 4.387350 -27.453200 0.000000 0.000000 18.289800 -18.695200 0.000000 -29.054600 0.000000 0.000000 7.125020 -0.000000 0.000000 0.000000 -70.506700 -31.326400 -43.140700 0.000000 0.000000 27.989600 -43.323000 0.000000 -17.355800 0.000000 0.000000 7.125020
8.373540 16.628300 23.878000 -179.787000 2.304410 -169.931000 -17.896100 -8.596620 -10.581200 0.000000 0.000000 12.819500 4.318600 0.000000 -15.762600 0.000000 0.000000 -55.638600 21.443000 0.630455 -9.092150 0.000000 0.000000 8.648600 -4.634810 0.000000 -13.836400 0.000000 0.000000 -16.959700 -5.670970 2.152280 -8.384440 1.006410 3.406050 -0.119916 4.634030 1.579950 4.187680 -3.925290 1.047960 -8.653270 3.048670 -1.229900 10.089100 -0.000000 -0.000000 0.000000 90.997200 4.571080 -27.388000 0.000000 0.000000 17.945200 -19.557400 0.000000 -29.079300 0.000000 0.000000 7.125020 -0.000000 -0.000000 0.000000 -70.176300 -31.689500 -43.494600 0.000000 0.000000 27.914000 -43.266100 0.000000 -16.817900 0.000000 0.000000 7.125020
8.371850 16.627400 23.877800 -179.741000 2.408220 -169.994000 -17.858100 -8.484680 -10.366900 0.000000 0.000000 12.571100 4.337390 0.000000 -15.681100 0.000000 0.000000 -55.670900 21.499100 0.761234 -9.042800 0.000000 0.000000 8.673600 -4.747050 0.000000 -13.882200 0.000000 0.000000 -17.296100 -5.634760 2.169320 -8.421990 1.020800 3.426940 -0.104858 4.633570 1.589130 4.223200 -3.802450 1.091820 -8.691360 3.005180 -1.201480 10.110900 -0.000000 0.000000 0.000000 90.763500 4.766240 -27.321300 0.000000 0.000000 17.766500 -20.115300 0.000000 -29.051200 0.000000 0.000000 7.125020 -0.000000 0.000000 0.000000 -70.086000 -31.817700 -43.609300 0.000000 0.000000 27.625900 -41.565300 0.000000 -17.827700 0.000000 0.000000 7.125020
8.368570 16.627300 23.877100 -179.638000 2.478890 -170.016000 -17.762300 -8.461730 -10.208400 0.000000 0.000000 12.375800 4.381750 0.000000 -15.654300 0.000000 0.000000 -55.643200 21.614600 0.769482 -9.038160 0.000000 0.000000 8.702070 -4.713250 0.000000 -13.871900 0.000000 0.000000 -17.509800 -5.533130 2.171240 -8.509660 1.061340 3.423040 -0.052972 4.625310 1.583310 4.330490 -3.684090 1.128730 -8.821230 2.955070 -1.156830 10.132900 0.000000 -0.000000 0.000000 90.672800 4.557960 -27.273400 0.000000 0.000000 17.883600 -20.224600 0.000000 -28.984200 0.000000 0.000000 7.125020 0.000000 -0.000000 0.000000 -70.035000 -31.946900 -43.613300 0.000000 0.000000 27.417800 -40.761800 0.000000 -18.223700 0.000000 0.000000 7.125020
8.366350 16.626300 23.877600 -179.595000 2.542800 -170.032000 -17.725300 -8.424880 -10.062700 0.000000 0.000000 12.171000 4.450650 0.000000 -15.567900 0.000000 0.000000 -55.661900 21.654900 0.828266 -9.058740 0.000000 0.000000 8.751900 -4.677070 0.000000 -13.880400 0.000000 0.000000 -17.318800 -5.503420 2.178320 -8.529690 1.068020 3.430440 -0.044047 4.617840 1.586490 4.351480 -3.605540 1.115540 -8.927300 2.925290 -1.148070 10.144700 -0.000000 0.000000 0.000000 90.593800 4.166360 -27.280900 0.000000 0.000000 18.002500 -19.956100 0.000000 -28.939800 0.000000 0.000000 7.125020 -0.000000 0.000000 0.000000 -69.870700 -32.188100 -43.712100 0.000000 0.000000 27.442000 -43.167800 0.000000 -16.662200 0.000000 0.000000 7.125020
8.366210 16.625300 23.879700 -179.591000 2.648830 -170.062000 -17.704500 -8.322000 -9.902420 0.000000 0.000000 11.908300 4.466660 0.000000 -15.460500 0.000000 0.000000 -55.559000 21.655400 0.978436 -9.115710 0.000000 0.000000 8.898110 -4.678380 0.000000 -13.962900 0.000000 0.000000 -16.647200 -5.561570 2.177860 -8.504360 1.094530 3.433040 -0.068728 4.676350 1.588870 4.306170 -3.680930 1.089610 -8.802730 2.944590 -1.164710 10.082300 -0.000000 -0.000000 0.000000 90.359400 4.281120 -27.237300 0.000000 0.000000 17.845500 -19.568600 0.000000 -28.920900 0.000000 0.000000 7.125020 -0.000000 -0.000000 0.000000 -69.444500 -32.511100 -43.914100 0.000000 0.000000 26.835500 -43.401700 0.000000 -17.820300 0.000000 0.000000 7.125020
